<svg xmlns="http://www.w3.org/2000/svg" width="64" height="64" viewBox="0 0 64 64"><g fill="#000" fill-rule="nonzero"><path d="M32 36a2 2 0 0 1 1.995 1.85L34 38v24a2 2 0 0 1-3.995.15L30 62V38a2 2 0 0 1 2-2ZM50 36a2 2 0 0 1 1.995 1.85L52 38v12l-.005.15a2 2 0 0 1-1.838 1.844L50 52H38l-.15-.005a2 2 0 0 1-1.844-1.838L36 50l.005-.15a2 2 0 0 1 1.838-1.844L38 48h10V38l.005-.15A2 2 0 0 1 50 36ZM14 36a2 2 0 0 1 1.995 1.85L16 38v10h10a2 2 0 0 1 1.995 1.85L28 50a2 2 0 0 1-1.85 1.995L26 52H14a2 2 0 0 1-1.995-1.85L12 50V38a2 2 0 0 1 2-2ZM26 30a2 2 0 0 1 .15 3.995L26 34H2a2 2 0 0 1-.15-3.995L2 30h24ZM62 30a2 2 0 0 1 .15 3.995L62 34H38a2 2 0 0 1-.15-3.995L38 30h24ZM32 0a2 2 0 0 1 1.995 1.85L34 2v24a2 2 0 0 1-3.995.15L30 26V2a2 2 0 0 1 2-2ZM50 12a2 2 0 0 1 1.995 1.85L52 14v12a2 2 0 0 1-3.995.15L48 26V16H38a2 2 0 0 1-1.995-1.85L36 14a2 2 0 0 1 1.85-1.995L38 12h12ZM26 12l.15.005a2 2 0 0 1 1.844 1.838L28 14l-.005.15a2 2 0 0 1-1.838 1.844L26 16H16v10l-.005.15a2 2 0 0 1-3.99 0L12 26V14l.005-.15a2 2 0 0 1 1.838-1.844L14 12h12Z"/></g></svg>
