<svg xmlns="http://www.w3.org/2000/svg" width="64" height="64" viewBox="0 0 64 64"><g fill="#000" fill-rule="nonzero"><path d="m31.106 6.211-24 12c-1.475.737-1.475 2.84 0 3.578l24 12a2 2 0 0 0 1.788 0l24-12c1.475-.737 1.475-2.84 0-3.578l-24-12a2 2 0 0 0-1.788 0ZM32 10.235 51.528 20 32 29.764 12.471 20 32 10.235ZM48.211 40.106a2 2 0 0 1 2.54-.96l.143.065 6 3c1.424.712 1.473 2.697.148 3.497l-.148.08-24 12a2 2 0 0 1-1.617.077l-.171-.076-24-12c-1.424-.712-1.473-2.697-.148-3.497l.148-.08 6-3a2 2 0 0 1 1.926 3.502l-.138.075L12.471 44 32 53.764 51.528 44l-2.422-1.211a2 2 0 0 1-.96-2.54l.065-.143Z"/><path d="M48.211 28.106a2 2 0 0 1 2.54-.96l.143.065 6 3c1.424.712 1.473 2.697.148 3.497l-.148.08-24 12a2 2 0 0 1-1.617.077l-.171-.076-24-12c-1.424-.712-1.473-2.697-.148-3.497l.148-.08 6-3a2 2 0 0 1 1.926 3.502l-.138.075L12.471 32 32 41.764 51.528 32l-2.422-1.211a2 2 0 0 1-.96-2.54l.065-.143Z"/></g></svg>
