<svg xmlns="http://www.w3.org/2000/svg" width="64" height="64" viewBox="0 0 64 64"><path fill="#000" fill-rule="evenodd" d="M37.052 4c1.622 0 2.639.384 4.042 1.748l.203.202-1.09 1.103c-1.153-1.167-1.79-1.463-2.956-1.49l-.2-.003-.917-.001-.295 1.493-.477 2.407h6.621c1.85 0 4.934 1.249 5.242 5.304.142 1.872.35 7.333.533 13.07l.036 1.15.039 1.266c.179 5.902.317 11.606.317 13.528 0 3.97-2.613 6.745-6.18 6.861h-.005L50 60h-5.858l-.934-1.56H19.791L18.858 60H13l8.034-9.362c-3.57-.116-6.184-2.891-6.184-6.86 0-1.923.138-7.627.317-13.53l.039-1.266.036-1.15c.183-5.736.39-11.197.533-13.069.308-4.055 3.392-5.303 5.242-5.303l6.619-.001-.771-3.9h-.915c-1.228 0-1.868.235-2.967 1.307l-.188.187-1.09-1.103c1.442-1.46 2.45-1.91 4.017-1.947L25.95 4h11.102Zm3.729 50.384H22.218l-1.12 1.872h20.803l-1.12-1.872Zm-2.238-3.743H24.456l-.932 1.559h15.951l-.932-1.559Zm-17.68-9.984a2.016 2.016 0 0 0-2.005 2.028c0 1.12.898 2.028 2.005 2.028a2.016 2.016 0 0 0 2.004-2.028c0-1.12-.898-2.028-2.005-2.028Zm21.275 0a2.016 2.016 0 0 0-2.005 2.028c0 1.12.898 2.028 2.005 2.028a2.016 2.016 0 0 0 2.004-2.028c0-1.12-.898-2.028-2.005-2.028Zm2.929-23.398H17.933l-.616 14.663h28.366l-.616-14.663ZM35.19 5.56h-7.383l.771 3.9h5.84l.772-3.9Z"/></svg>
